HIERARCHY
ROOT Hips
{
  OFFSET 1.351 -6.111 -302.186
  CHANNELS 6 Xposition Yposition Zposition Zrotation Xrotation Yrotation
  JOINT LeftUpLeg
  {
    OFFSET 6.980 -6.108 1.806
    CHANNELS 6 Xposition Yposition Zposition Zrotation Xrotation Yrotation
    JOINT LeftLeg
    {
      OFFSET 0.000 -46.686 0.000
      CHANNELS 6 Xposition Yposition Zposition Zrotation Xrotation Yrotation
      JOINT LeftFoot
      {
        OFFSET -0.000 -35.578 -0.000
        CHANNELS 6 Xposition Yposition Zposition Zrotation Xrotation Yrotation
        End Site
        {
          OFFSET 0.000 -7.376 4.258
        }
      }
    }
  }
  JOINT RightUpLeg
  {
    OFFSET -6.500 -6.560 2.568
    CHANNELS 6 Xposition Yposition Zposition Zrotation Xrotation Yrotation
    JOINT RightLeg
    {
      OFFSET 0.000 -44.342 0.000
      CHANNELS 6 Xposition Yposition Zposition Zrotation Xrotation Yrotation
      JOINT RightFoot
      {
        OFFSET -0.000 -37.547 -0.000
        CHANNELS 6 Xposition Yposition Zposition Zrotation Xrotation Yrotation
        End Site
        {
          OFFSET 0.000 -7.342 4.239
        }
      }
    }
  }
  JOINT Spine
  {
    OFFSET 0.000 5.525 -5.525
    CHANNELS 6 Xposition Yposition Zposition Zrotation Xrotation Yrotation
    JOINT LeftShoulder
    {
      OFFSET -0.000 32.038 0.000
      CHANNELS 6 Xposition Yposition Zposition Zrotation Xrotation Yrotation
      JOINT LeftArm
      {
        OFFSET 16.000 0.000 -0.000
        CHANNELS 6 Xposition Yposition Zposition Zrotation Xrotation Yrotation
        JOINT LeftForeArm
        {
          OFFSET 25.284 0.000 0.000
          CHANNELS 6 Xposition Yposition Zposition Zrotation Xrotation Yrotation
          JOINT LeftHand
          {
            OFFSET 23.768 0.000 0.000
            CHANNELS 6 Xposition Yposition Zposition Zrotation Xrotation Yrotation
            JOINT LeftHandThumb1
            {
            OFFSET 4.970 -0.620 3.390
            CHANNELS 6 Xposition Yposition Zposition Zrotation Xrotation Yrotation
              JOINT LeftHandThumb2
              {
              OFFSET 2.150 -0.000 0.000
              CHANNELS 6 Xposition Yposition Zposition Zrotation Xrotation Yrotation
                JOINT LeftHandThumb3
                {
                OFFSET 2.200 -0.000 0.000
                CHANNELS 6 Xposition Yposition Zposition Zrotation Xrotation Yrotation
                  JOINT LeftHandThumb4
                  {
                  OFFSET 1.700 -0.000 0.000
                  CHANNELS 6 Xposition Yposition Zposition Zrotation Xrotation Yrotation
                  }
                }
              }
            }
            JOINT LeftHandIndex1
            {
            OFFSET 8.730 0.680 2.070
            CHANNELS 6 Xposition Yposition Zposition Zrotation Xrotation Yrotation
              JOINT LeftHandIndex2
              {
              OFFSET 2.670 -0.000 0.000
              CHANNELS 6 Xposition Yposition Zposition Zrotation Xrotation Yrotation
                JOINT LeftHandIndex3
                {
                OFFSET 2.130 -0.000 0.000
                CHANNELS 6 Xposition Yposition Zposition Zrotation Xrotation Yrotation
                  JOINT LeftHandIndex4
                  {
                  OFFSET 1.800 -0.000 0.000
                  CHANNELS 6 Xposition Yposition Zposition Zrotation Xrotation Yrotation
                  }
                }
              }
            }
            JOINT LeftHandMiddle1
            {
            OFFSET 9.220 0.670 0.550
            CHANNELS 6 Xposition Yposition Zposition Zrotation Xrotation Yrotation
              JOINT LeftHandMiddle2
              {
              OFFSET 2.660 -0.000 0.000
              CHANNELS 6 Xposition Yposition Zposition Zrotation Xrotation Yrotation
                JOINT LeftHandMiddle3
                {
                OFFSET 2.280 -0.000 0.000
                CHANNELS 6 Xposition Yposition Zposition Zrotation Xrotation Yrotation
                  JOINT LeftHandMiddle4
                  {
                  OFFSET 1.500 -0.000 0.000
                  CHANNELS 6 Xposition Yposition Zposition Zrotation Xrotation Yrotation
                  }
                }
              }
            }
            JOINT LeftHandRing1
            {
            OFFSET 9.250 0.670 -1.130
            CHANNELS 6 Xposition Yposition Zposition Zrotation Xrotation Yrotation
              JOINT LeftHandRing2
              {
              OFFSET 2.470 -0.000 0.000
              CHANNELS 6 Xposition Yposition Zposition Zrotation Xrotation Yrotation
                JOINT LeftHandRing3
                {
                OFFSET 2.210 -0.000 0.000
                CHANNELS 6 Xposition Yposition Zposition Zrotation Xrotation Yrotation
                  JOINT LeftHandRing4
                  {
                  OFFSET 1.800 -0.000 0.000
                  CHANNELS 6 Xposition Yposition Zposition Zrotation Xrotation Yrotation
                  }
                }
              }
            }
            JOINT LeftHandPinky1
            {
            OFFSET 9.350 0.660 -2.720
            CHANNELS 6 Xposition Yposition Zposition Zrotation Xrotation Yrotation
              JOINT LeftHandPinky2
              {
              OFFSET 1.630 -0.000 0.000
              CHANNELS 6 Xposition Yposition Zposition Zrotation Xrotation Yrotation
                JOINT LeftHandPinky3
                {
                OFFSET 1.710 -0.000 0.000
                CHANNELS 6 Xposition Yposition Zposition Zrotation Xrotation Yrotation
                  JOINT LeftHandPinky4
                  {
                  OFFSET 1.800 -0.000 0.000
                  CHANNELS 6 Xposition Yposition Zposition Zrotation Xrotation Yrotation
                  }
                }
              }
            }
          }
        }
      }
    }
    JOINT RightShoulder
    {
      OFFSET -0.000 32.038 0.000
      CHANNELS 6 Xposition Yposition Zposition Zrotation Xrotation Yrotation
      JOINT RightArm
      {
        OFFSET -18.353 0.000 -0.000
        CHANNELS 6 Xposition Yposition Zposition Zrotation Xrotation Yrotation
        JOINT RightForeArm
        {
          OFFSET -23.899 0.000 0.000
          CHANNELS 6 Xposition Yposition Zposition Zrotation Xrotation Yrotation
          JOINT RightHand
          {
            OFFSET -23.506 0.000 -0.000
            CHANNELS 6 Xposition Yposition Zposition Zrotation Xrotation Yrotation
            JOINT RightHandThumb1
            {
            OFFSET -4.970 -0.620 3.390
            CHANNELS 6 Xposition Yposition Zposition Zrotation Xrotation Yrotation
              JOINT RightHandThumb2
              {
              OFFSET -2.150 0.000 0.000
              CHANNELS 6 Xposition Yposition Zposition Zrotation Xrotation Yrotation
                JOINT RightHandThumb3
                {
                OFFSET -2.200 0.000 0.000
                CHANNELS 6 Xposition Yposition Zposition Zrotation Xrotation Yrotation
                  JOINT RightHandThumb4
                  {
                  OFFSET -1.700 0.000 0.000
                  CHANNELS 6 Xposition Yposition Zposition Zrotation Xrotation Yrotation
                  }
                }
              }
            }
            JOINT RightHandIndex1
            {
            OFFSET -8.730 0.680 2.070
            CHANNELS 6 Xposition Yposition Zposition Zrotation Xrotation Yrotation
              JOINT RightHandIndex2
              {
              OFFSET -2.670 0.000 0.000
              CHANNELS 6 Xposition Yposition Zposition Zrotation Xrotation Yrotation
                JOINT RightHandIndex3
                {
                OFFSET -2.130 0.000 0.000
                CHANNELS 6 Xposition Yposition Zposition Zrotation Xrotation Yrotation
                  JOINT RightHandIndex4
                  {
                  OFFSET -1.800 0.000 0.000
                  CHANNELS 6 Xposition Yposition Zposition Zrotation Xrotation Yrotation
                  }
                }
              }
            }
            JOINT RightHandMiddle1
            {
            OFFSET -9.220 0.670 0.550
            CHANNELS 6 Xposition Yposition Zposition Zrotation Xrotation Yrotation
              JOINT RightHandMiddle2
              {
              OFFSET -2.660 0.000 0.000
              CHANNELS 6 Xposition Yposition Zposition Zrotation Xrotation Yrotation
                JOINT RightHandMiddle3
                {
                OFFSET -2.280 0.000 0.000
                CHANNELS 6 Xposition Yposition Zposition Zrotation Xrotation Yrotation
                  JOINT RightHandMiddle4
                  {
                  OFFSET -1.500 0.000 0.000
                  CHANNELS 6 Xposition Yposition Zposition Zrotation Xrotation Yrotation
                  }
                }
              }
            }
            JOINT RightHandRing1
            {
            OFFSET -9.250 0.670 -1.130
            CHANNELS 6 Xposition Yposition Zposition Zrotation Xrotation Yrotation
              JOINT RightHandRing2
              {
              OFFSET -2.470 0.000 0.000
              CHANNELS 6 Xposition Yposition Zposition Zrotation Xrotation Yrotation
                JOINT RightHandRing3
                {
                OFFSET -2.210 0.000 0.000
                CHANNELS 6 Xposition Yposition Zposition Zrotation Xrotation Yrotation
                  JOINT RightHandRing4
                  {
                  OFFSET -1.800 0.000 0.000
                  CHANNELS 6 Xposition Yposition Zposition Zrotation Xrotation Yrotation
                  }
                }
              }
            }
            JOINT RightHandPinky1
            {
            OFFSET -9.350 0.660 -2.720
            CHANNELS 6 Xposition Yposition Zposition Zrotation Xrotation Yrotation
              JOINT RightHandPinky2
              {
              OFFSET -1.630 0.000 0.000
              CHANNELS 6 Xposition Yposition Zposition Zrotation Xrotation Yrotation
                JOINT RightHandPinky3
                {
                OFFSET -1.710 0.000 0.000
                CHANNELS 6 Xposition Yposition Zposition Zrotation Xrotation Yrotation
                  JOINT RightHandPinky4
                  {
                  OFFSET -1.800 0.000 0.000
                  CHANNELS 6 Xposition Yposition Zposition Zrotation Xrotation Yrotation
                  }
                }
              }
            }
          }
        }
      }
    }
    JOINT Neck
    {
      OFFSET -0.000 32.038 0.000
      CHANNELS 6 Xposition Yposition Zposition Zrotation Xrotation Yrotation
      JOINT Head
      {
        OFFSET -0.000 21.071 -0.000
        CHANNELS 6 Xposition Yposition Zposition Zrotation Xrotation Yrotation
        End Site
        {
          OFFSET -0.000 0.084 -0.000
        }
      }
    }
  }
}
MOTION
Frames:	4
Frame Time:	0.0333333
3.83716 -5.27886 -304.217 -2.30576 1.17211 -28.2512 6.98216 -6.16096 1.40398 6.50742 1.05049 1.72705 1.19209e-05 -48.0386 -2.38419e-05 2.76727 -4.99071 0.24092 0 -34.8832 0 5.42099 -13.4777 4.29388 -6.56619 -7.12073 1.82383 7.91624 2.54749 1.60113 3.57628e-05 -46.5671 2.38419e-05 0.196607 0.515749 -0.00176568 -3.57628e-05 -38.2446 -4.76837e-05 -0.970655 -44.2919 -1.07555 1.19209e-05 6.07198 -6.07197 1.27668 -4.3761 0.0464886 0 32.0382 -7.15256e-05 -29.5375 1.19528e-05 -10.4273 15.7728 1.19209e-05 0 -40.9664 38.866 4.87909 24.1335 9.53674e-05 1.19209e-05 5.99771e-06 -3.4151e-06 -21.394 28.5661 -4.76837e-05 1.78814e-05 -6.8028 -0.000958791 5.21096 0.0062 0.0497 0.0339 0 0 0 0 0.0215 0 0 0 0 0 0.022 0 0 0 0 0 0.017 0 0 0 0 -0.0068 0.0873 0.0207 0 0 0 0 0.0267 0 0 0 0 0 0.0213 0 0 0 0 0 0.018 0 0 0 0 -0.0067 0.0922 0.0055 0 0 0 0 0.0266 0 0 0 0 0 0.0228 0 0 0 0 0 0.015 0 0 0 0 -0.0067 0.0925 -0.0113 0 0 0 0 0.0247 0 0 0 0 0 0.0221 0 0 0 0 0 0.018 0 0 0 0 -0.0066 0.0935 -0.0272 0 0 0 0 0.0163 0 0 0 0 0 0.0171 0 0 0 0 0 0.018 0 0 0 0 0 32.0382 -7.15256e-05 21.9018 1.70755e-06 8.73243 -18.803 0 0 63.3495 14.6703 -18.5176 -27.7834 -5.96046e-06 -2.38419e-05 7.13282e-06 8.53773e-07 33.7809 -27.6434 -2.98023e-06 -7.15256e-05 -1.3918 0.0269417 -10.278 -0.0062 0.0497 0.0339 45 0 0 0 0.0215 0 0 -45 0 0 0.022 0 0 -45 0 0 0.017 0 0 0 0 0.0068 0.0873 0.0207 45 0 0 0 0.0267 0 80 0 0 0 0.0213 0 90 0 0 0 0.018 0 0 0 0 0.0067 0.0922 0.0055 45 0 0 0 0.0266 0 80 0 0 0 0.0228 0 90 0 0 0 0.015 0 0 0 0 0.0067 0.0925 -0.0113 45 0 0 0 0.0247 0 80 0 0 0 0.0221 0 90 0 0 0 0.018 0 0 0 0 0.0066 0.0935 -0.0272 45 0 0 0 0.0163 0 80 0 0 0 0.0171 0 90 0 0 0 0.018 0 0 0 0 0 32.0382 -7.15256e-05 10.5856 6.2424 -1.16415 0 23.4674 -4.76837e-05 8.96462e-06 -1.10991e-05 -1.70755e-06 
3.83716 -5.27886 -304.217 -2.30576 1.17211 -28.2512 6.98216 -6.16096 1.40398 6.50742 1.05049 1.72705 1.19209e-05 -48.0386 -2.38419e-05 2.76727 -4.99071 0.24092 0 -34.8832 0 5.42099 -13.4777 4.29388 -6.56619 -7.12073 1.82383 7.91624 2.54749 1.60113 3.57628e-05 -46.5671 2.38419e-05 0.196607 0.515749 -0.00176568 -3.57628e-05 -38.2446 -4.76837e-05 -0.970655 -44.2919 -1.07555 1.19209e-05 6.07198 -6.07197 1.27668 -4.3761 0.0464886 0 32.0382 -7.15256e-05 -29.5375 1.19528e-05 -10.4273 15.7728 1.19209e-05 0 -40.9664 38.866 4.87909 24.1335 9.53674e-05 1.19209e-05 5.99771e-06 -3.4151e-06 -21.394 28.5661 -4.76837e-05 1.78814e-05 -6.8028 -0.000958791 5.21096 0.0062 0.0497 0.0339 0 0 0 0 0.0215 0 0 0 0 0 0.022 0 0 0 0 0 0.017 0 0 0 0 -0.0068 0.0873 0.0207 0 0 0 0 0.0267 0 0 0 0 0 0.0213 0 0 0 0 0 0.018 0 0 0 0 -0.0067 0.0922 0.0055 0 0 0 0 0.0266 0 0 0 0 0 0.0228 0 0 0 0 0 0.015 0 0 0 0 -0.0067 0.0925 -0.0113 0 0 0 0 0.0247 0 0 0 0 0 0.0221 0 0 0 0 0 0.018 0 0 0 0 -0.0066 0.0935 -0.0272 0 0 0 0 0.0163 0 0 0 0 0 0.0171 0 0 0 0 0 0.018 0 0 0 0 0 32.0382 -7.15256e-05 21.9018 1.70755e-06 8.73243 -18.803 0 0 63.3495 14.6703 -18.5176 -27.7834 -5.96046e-06 -2.38419e-05 7.13282e-06 8.53773e-07 33.7809 -27.6434 -2.98023e-06 -7.15256e-05 -1.3918 0.0269417 -10.278 -0.0062 0.0497 0.0339 45 0 0 0 0.0215 0 0 -45 0 0 0.022 0 0 -45 0 0 0.017 0 0 0 0 0.0068 0.0873 0.0207 45 0 0 0 0.0267 0 80 0 0 0 0.0213 0 90 0 0 0 0.018 0 0 0 0 0.0067 0.0922 0.0055 45 0 0 0 0.0266 0 80 0 0 0 0.0228 0 90 0 0 0 0.015 0 0 0 0 0.0067 0.0925 -0.0113 45 0 0 0 0.0247 0 80 0 0 0 0.0221 0 90 0 0 0 0.018 0 0 0 0 0.0066 0.0935 -0.0272 45 0 0 0 0.0163 0 80 0 0 0 0.0171 0 90 0 0 0 0.018 0 0 0 0 0 32.0382 -7.15256e-05 10.5856 6.2424 -1.16415 0 23.4674 -4.76837e-05 8.96462e-06 -1.10991e-05 -1.70755e-06 
3.83716 -5.27886 -304.217 -2.30576 1.17211 -28.2512 6.98216 -6.16096 1.40398 6.50742 1.05049 1.72705 1.19209e-05 -48.0386 -2.38419e-05 2.76727 -4.99071 0.24092 0 -34.8832 0 5.42099 -13.4777 4.29388 -6.56619 -7.12073 1.82383 7.91624 2.54749 1.60113 3.57628e-05 -46.5671 2.38419e-05 0.196607 0.515749 -0.00176568 -3.57628e-05 -38.2446 -4.76837e-05 -0.970655 -44.2919 -1.07555 1.19209e-05 6.07198 -6.07197 1.27668 -4.3761 0.0464886 0 32.0382 -7.15256e-05 -29.5375 1.19528e-05 -10.4273 15.7728 1.19209e-05 0 -40.9664 38.866 4.87909 24.1335 9.53674e-05 1.19209e-05 5.99771e-06 -3.4151e-06 -21.394 28.5661 -4.76837e-05 1.78814e-05 -6.8028 -0.000958791 5.21096 0.0062 0.0497 0.0339 0 0 0 0 0.0215 0 0 0 0 0 0.022 0 0 0 0 0 0.017 0 0 0 0 -0.0068 0.0873 0.0207 0 0 0 0 0.0267 0 0 0 0 0 0.0213 0 0 0 0 0 0.018 0 0 0 0 -0.0067 0.0922 0.0055 0 0 0 0 0.0266 0 0 0 0 0 0.0228 0 0 0 0 0 0.015 0 0 0 0 -0.0067 0.0925 -0.0113 0 0 0 0 0.0247 0 0 0 0 0 0.0221 0 0 0 0 0 0.018 0 0 0 0 -0.0066 0.0935 -0.0272 0 0 0 0 0.0163 0 0 0 0 0 0.0171 0 0 0 0 0 0.018 0 0 0 0 0 32.0382 -7.15256e-05 21.9018 1.70755e-06 8.73243 -18.803 0 0 63.3495 14.6703 -18.5176 -27.7834 -5.96046e-06 -2.38419e-05 7.13282e-06 8.53773e-07 33.7809 -27.6434 -2.98023e-06 -7.15256e-05 -1.3918 0.0269417 -10.278 -0.0062 0.0497 0.0339 45 0 0 0 0.0215 0 0 -45 0 0 0.022 0 0 -45 0 0 0.017 0 0 0 0 0.0068 0.0873 0.0207 45 0 0 0 0.0267 0 80 0 0 0 0.0213 0 90 0 0 0 0.018 0 0 0 0 0.0067 0.0922 0.0055 45 0 0 0 0.0266 0 80 0 0 0 0.0228 0 90 0 0 0 0.015 0 0 0 0 0.0067 0.0925 -0.0113 45 0 0 0 0.0247 0 80 0 0 0 0.0221 0 90 0 0 0 0.018 0 0 0 0 0.0066 0.0935 -0.0272 45 0 0 0 0.0163 0 80 0 0 0 0.0171 0 90 0 0 0 0.018 0 0 0 0 0 32.0382 -7.15256e-05 10.5856 6.2424 -1.16415 0 23.4674 -4.76837e-05 8.96462e-06 -1.10991e-05 -1.70755e-06 
3.83265 -5.2918 -304.173 -2.17599 1.12546 -28.2297 6.95719 -6.16147 1.37188 6.34921 1.04719 2.0747 1.19209e-05 -47.9477 2.38419e-05 2.28922 -4.91555 0.196264 1.19209e-05 -34.6155 -4.76837e-05 5.57585 -13.25 4.4018 -6.54858 -7.09949 1.87228 7.70292 2.6326 1.94753 0 -46.5326 -7.15256e-05 0.26732 0.390034 -0.00181004 0 -38.2525 4.76837e-05 -1.11643 -44.3215 -1.23803 0 6.07914 -6.07915 1.21247 -4.42736 0.119727 1.19209e-05 32.0382 -4.76837e-05 -29.3766 1.10991e-05 -10.4872 15.7758 -1.49012e-06 0 -41.222 38.6538 4.82995 24.1685 -2.38419e-05 0 -2.66058e-06 -6.83019e-06 -21.2825 28.5525 4.76837e-05 -5.96046e-06 -6.76152 -0.0010066 5.24881 0.0062 0.0497 0.0339 0 0 0 0 0.0215 0 0 0 0 0 0.022 0 0 0 0 0 0.017 0 0 0 0 -0.0068 0.0873 0.0207 0 0 0 0 0.0267 0 0 0 0 0 0.0213 0 0 0 0 0 0.018 0 0 0 0 -0.0067 0.0922 0.0055 0 0 0 0 0.0266 0 0 0 0 0 0.0228 0 0 0 0 0 0.015 0 0 0 0 -0.0067 0.0925 -0.0113 0 0 0 0 0.0247 0 0 0 0 0 0.0221 0 0 0 0 0 0.018 0 0 0 0 -0.0066 0.0935 -0.0272 0 0 0 0 0.0163 0 0 0 0 0 0.0171 0 0 0 0 0 0.018 0 0 0 0 1.19209e-05 32.0382 -4.76837e-05 22.0469 4.26887e-06 8.78178 -18.8079 0 2.38419e-05 63.0983 14.981 -18.8506 -27.7786 -8.9407e-06 2.38419e-05 3.48603e-06 1.70755e-06 34.307 -27.5868 8.9407e-06 -2.38419e-05 -1.68626 0.0309859 -10.2741 -0.0062 0.0497 0.0339 45 0 0 0 0.0215 0 0 -45 0 0 0.022 0 0 -45 0 0 0.017 0 0 0 0 0.0068 0.0873 0.0207 45 0 0 0 0.0267 0 80 0 0 0 0.0213 0 90 0 0 0 0.018 0 0 0 0 0.0067 0.0922 0.0055 45 0 0 0 0.0266 0 80 0 0 0 0.0228 0 90 0 0 0 0.015 0 0 0 0 0.0067 0.0925 -0.0113 45 0 0 0 0.0247 0 80 0 0 0 0.0221 0 90 0 0 0 0.018 0 0 0 0 0.0066 0.0935 -0.0272 45 0 0 0 0.0163 0 80 0 0 0 0.0171 0 90 0 0 0 0.018 0 0 0 0 1.19209e-05 32.0382 -4.76837e-05 10.2685 6.06632 -1.09679 -2.38419e-05 23.5778 -7.15256e-05 7.47052e-06 -1.02453e-05 -6.83019e-06 
